{"title":"The.Independents.Cavuto.Ottawa.Shooting.2014.10.22.WS.SDTV.x264-","uid":11298828,"size":381169477,"categoryP":"video","categoryS":"tv_shows","magnet":"?xt=urn:btih:d025631fc8073b193e8136553bfbdfae7ea086dc&amp;dn=The.Independents.Cavuto.Ottawa.Shooting.2014.10.22.WS.SDTV.x264-&amp;tr=udp%3A%2F%2Ftracker.openbittorrent.com%3A80&amp;tr=udp%3A%2F%2Fopen.demonii.com%3A1337&amp;tr=udp%3A%2F%2Ftracker.coppersurfer.tk%3A6969&amp;tr=udp%3A%2F%2Fexodus.desync.com%3A6969","seeders":0,"leechers":0,"uploader":"Reive","files":-1,"time":1414407605,"description":"This is an odd one. Due to the Ottawa shooting The Independents was replaced with Cavuto. However they were on with Cavuto multiple times during the hour that they normally air. This is that hour.\n\nMore Cavuto than Independents but worth a watch. Also all we're going to get for the 22nd.\n\nTONIGHT ON THE INDEPENDENTS (written by Matt Welch, taken from Reason)\n---------------------------\nInstead of seeing The Independents tonight on Fox Business Network at 9 p.m. ET, 6 p.m. PT, alert viewers will see the co-hosts of The Independents, talking with FBN/Fox interviewer extraordinaire Neil Cavuto about the onslaught in Ottawa, implications for civil liberties, and maybe even the fresh new White House lawn-jumper, all through the hour. Fear! Fire! Foes! Awake! And tune back in again Friday, for a great show on &quot;Midterm Madness.&quot;\n\nINFO\n----\nRipped with the Diamond VC500. Using the software that came packaged with the dongle. (It's called EZ Ripper.) In that software there's a &quot;DVD Standard&quot; which rips the video to .mpg at 720x480 with some terrible black bars. I load that file into AVIDemux. Cut the file into multiple parts to remove the commercials. Rejoin, crop, and resize those files using the same tool. For conversion I used MPEG4 AVC (x264), 2 pass on video and AAC (faac) on audio.\n\nI am not part of the scene. I just admire their naming standards.\n\nGeneral \nComplete name : The.Independents.Cavuto.Ottawa.Shooting.2014.10.22.WS.SDTV.x264-XAiO.mp4 \nFormat : MPEG-4 \nFormat profile : Base Media \nCodec ID : isom \nFile size : 364 MiB \nDuration : 54mn 5s \nOverall bit rate : 940 Kbps \nWriting application : Lavf54.63.104 \n\nVideo \nID : 1 \nFormat : AVC \nFormat/Info : Advanced Video Codec \nFormat profile : &lt;a class=&quot;__cf_email__&quot; href=&quot;/cdn-cgi/l/email-protection&quot; data-cfemail=&quot;b4fcddd3dcf4f8879a84&quot;&gt;[email&amp;#160;protected]&lt;/a&gt;&lt;script cf-hash='f9e31' type=&quot;text/javascript&quot;&gt;\n/* &lt;![CDATA[ */!function(){try{var t=&quot;currentScript&quot;in document?document.currentScript:function(){for(var t=document.getElementsByTagName(&quot;script&quot;),e=t.length;e--;)if(t[e].getAttribute(&quot;cf-hash&quot;))return t[e]}();if(t&amp;&amp;t.previousSibling){var e,r,n,i,c=t.previousSibling,a=c.getAttribute(&quot;data-cfemail&quot;);if(a){for(e=&quot;&quot;,r=parseInt(a.substr(0,2),16),n=2;a.length-n;n+=2)i=parseInt(a.substr(n,2),16)^r,e+=String.fromCharCode(i);e=document.createTextNode(e),c.parentNode.replaceChild(e,c)}}}catch(u){}}();/* ]]&gt; */&lt;/script&gt; \nFormat settings, CABAC : Yes \nFormat settings, ReFrames : 4 frames \nCodec ID : avc1 \nCodec ID/Info : Advanced Video Coding \nDuration : 54mn 5s \nBit rate : 801 Kbps \nWidth : 720 pixels \nHeight : 404 pixels \nDisplay aspect ratio : 16:9 \nFrame rate mode : Variable \nFrame rate : 29.970 fps \nMinimum frame rate : 9.990 fps \nMaximum frame rate : 29.970 fps \nColor space : YUV \nChroma subsampling : 4:2:0 \nBit depth : 8 bits \nScan type : Progressive \nBits/(Pixel*Frame) : 0.092 \nStream size : 310 MiB (85%) \nWriting library : x264 core 123 r2189 35cf912 \nEncoding settings : cabac=1 / ref=3 / deblock=1:0:0 / analyse=0x3:0x133 / me=hex / subme=7 / psy=1 / psy_rd=1.00:0.00 / mixed_ref=1 / me_range=16 / chroma_me=1 / trellis=1 / 8x8dct=1 / cqm=0 / deadzone=21,11 / fast_pskip=1 / chroma_qp_offset=-2 / threads=6 / sliced_threads=0 / nr=0 / decimate=1 / interlaced=0 / bluray_compat=0 / constrained_intra=0 / bframes=3 / b_pyramid=2 / b_adapt=1 / b_bias=0 / direct=1 / weightb=1 / open_gop=0 / weightp=2 / keyint=250 / keyint_min=25 / scenecut=40 / intra_refresh=0 / rc_lookahead=40 / rc=2pass / mbtree=1 / bitrate=801 / ratetol=1.0 / qcomp=0.60 / qpmin=10 / qpmax=51 / qpstep=4 / cplxblur=20.0 / qblur=0.5 / ip_ratio=1.40 / aq=1:1.00 \n\nAudio \nID : 2 \nFormat : AAC \nFormat/Info : Advanced Audio Codec \nFormat profile : LC \nCodec ID : 40 \nDuration : 54mn 5s \nBit rate mode : Constant \nBit rate : 128 Kbps \nChannel(s) : 2 channels \nChannel positions : Front: L R \nSampling rate : 48.0 KHz \nCompression mode : Lossy \nStream size : 49.5 MiB (14%) \nLanguage : unk","torrent":{"xt":"urn:btih:d025631fc8073b193e8136553bfbdfae7ea086dc","amp;dn":"The.Independents.Cavuto.Ottawa.Shooting.2014.10.22.WS.SDTV.x264-","amp;tr":["udp%3A%2F%2Ftracker.openbittorrent.com%3A80","udp%3A%2F%2Fopen.demonii.com%3A1337","udp%3A%2F%2Ftracker.coppersurfer.tk%3A6969","udp%3A%2F%2Fexodus.desync.com%3A6969"],"infoHash":"d025631fc8073b193e8136553bfbdfae7ea086dc","infoHashBuffer":{"type":"Buffer","data":[208,37,99,31,200,7,59,25,62,129,54,85,59,251,223,174,126,160,134,220]},"announce":[],"urlList":[]}}